<svg width="120" height="132" viewBox="0 0 120 132" fill="none" xmlns="http://www.w3.org/2000/svg">
<path d="M60 132C93.1371 132 120 105.137 120 72C120 38.8629 93.1371 12 60 12C26.8629 12 0 38.8629 0 72C0 105.137 26.8629 132 60 132Z" fill="url(#paint0_linear_2025_2574)"/>
<path fill-rule="evenodd" clip-rule="evenodd" d="M119.963 74.1219C99.9219 72.6455 78.9017 73.1588 56.9028 75.6618C34.9648 78.1579 16.8062 82.5866 2.42691 88.9478C0.847424 83.5735 0 77.8858 0 72.0003C0 67.1487 0.575822 62.4316 1.66285 57.9137C6.35308 54.5945 12.7834 56.5626 17.741 61.3003C25.3999 68.6194 31.4314 72.2155 42.2881 61.3003C53.1448 50.385 59.6346 52.9094 66.1017 61.3003C72.5687 69.6912 78.6641 67.5628 92.2739 65.5242C100.437 64.3014 109.679 66.5746 119.999 72.3436C119.996 72.9385 119.984 73.5313 119.963 74.1219V74.1219Z" fill="url(#paint1_linear_2025_2574)"/>
<path fill-rule="evenodd" clip-rule="evenodd" d="M0.0100098 73.1089C5.52161 66.4551 12.2509 64.5756 20.1978 67.4704C36.296 73.3346 37.698 72.1411 44.5132 67.4704C51.3284 62.7998 51.0372 59.7726 60 65.1624C68.9628 70.5523 75.9242 73.4915 83.5866 70.852C91.2491 68.2124 100.572 63.2553 109.46 73.2222C89.0853 72.5396 71.4145 73.4942 56.448 76.0859C39.3943 79.0391 15.1696 89.8404 4.50934 94.8623C1.73613 88.1385 0.149408 80.8005 0.0100098 73.1089Z" fill="url(#paint2_linear_2025_2574)"/>
<path fill-rule="evenodd" clip-rule="evenodd" d="M2.42798 88.9513C31.2286 74.6199 70.4099 69.588 119.972 73.8555C118.991 106.134 92.5163 132 60 132C32.7498 132 9.74259 113.834 2.42798 88.9513Z" fill="url(#paint3_linear_2025_2574)"/>
<path fill-rule="evenodd" clip-rule="evenodd" d="M2.38379 88.8001C26.9115 75.8518 60.2072 70.5159 102.271 72.7923C95.8706 72.7923 71.43 72.7923 56.4067 80.6489C41.3835 88.5056 44.7798 93.5183 55.4535 97.902C66.1271 102.286 59.5847 109.186 55.4535 109.186C52.6993 109.186 47.7085 108.324 40.481 106.598C32.5302 105.172 23.6011 106.358 13.6939 110.157C8.58118 103.959 4.68857 96.7179 2.38379 88.8001Z" fill="url(#paint4_linear_2025_2574)"/>
<path fill-rule="evenodd" clip-rule="evenodd" d="M13.1038 109.43C26.3655 103.777 38.7261 103.139 50.1856 107.514C74.1824 116.678 86.3289 99.651 92.4157 85.5383C97.1018 74.6729 112.944 72.9996 119.987 73.2692C119.311 105.82 92.713 132 59.9999 132C41.0199 132 24.0983 123.187 13.1038 109.43H13.1038Z" fill="url(#paint5_linear_2025_2574)"/>
<path fill-rule="evenodd" clip-rule="evenodd" d="M49.4408 131.074C49.3546 131.059 49.2684 131.043 49.1824 131.028V131.016C49.2689 131.036 49.355 131.055 49.4408 131.074H49.4408Z" fill="url(#paint6_linear_2025_2574)"/>
<path fill-rule="evenodd" clip-rule="evenodd" d="M57.2583 131.938C60.069 131.812 62.1432 131.037 63.4809 129.613C67.0787 125.784 58.2629 116.684 71.9528 115.93C85.6426 115.176 102.784 116.864 97.4746 105.589C92.1686 94.3211 98.6322 73.3659 119.985 73.3413C119.272 105.859 92.6889 132 60.0001 132C59.0812 132 58.1671 131.979 57.2583 131.938Z" fill="url(#paint7_linear_2025_2574)"/>
<path fill-rule="evenodd" clip-rule="evenodd" d="M55.2688 54.231C56.7235 49.8949 58.8334 45.969 60 42.8043C62.8489 35.0753 69.4502 33.7873 69.4502 27.1569C69.4502 20.5264 75.197 19.1765 78.2939 13.4C81.3908 7.62346 84.2743 13.9762 87.63 19.1765C90.9857 24.3767 94.6769 23.8199 94.6769 33.7873C94.6769 43.7546 101.619 43.8624 105.735 52.9158C107.987 57.8675 111.167 63.5995 115.275 70.1115C106.838 66.1533 99.1712 64.6907 92.2739 65.7239C78.664 67.7625 72.5687 69.8908 66.1016 61.5C62.7065 57.0948 59.3051 54.3066 55.2688 54.231Z" fill="url(#paint8_linear_2025_2574)"/>
<path fill-rule="evenodd" clip-rule="evenodd" d="M87.6301 19.1768C90.9858 24.377 94.677 23.8202 94.677 33.7876C94.677 43.7549 101.619 43.8627 105.735 52.9161C107.987 57.8678 111.167 63.5997 115.276 70.1118C106.839 66.1536 99.1713 64.691 92.274 65.7242C78.6642 67.7628 75 57.6417 79.6439 53.6511C84.2878 49.6605 93.1105 43.33 89.1745 39.0798C85.2385 34.8295 86.0857 31.5196 87.6301 27.9283C88.2795 26.4089 88.6042 24.9442 88.6042 23.5342C88.6042 21.419 87.6301 19.1768 87.6301 19.1768Z" fill="url(#paint9_linear_2025_2574)"/>
<path fill-rule="evenodd" clip-rule="evenodd" d="M93.3527 65.5834C92.991 65.6236 92.6315 65.6704 92.274 65.724C78.6641 67.7626 72.5688 69.8909 66.1017 61.5C59.6347 53.1091 53.1448 50.5848 42.2881 61.5C31.4314 72.4153 25.3999 68.8192 17.741 61.5C15.3599 59.2245 12.639 57.5879 9.93433 56.8692C11.0987 54.6663 12.2335 52.3515 12.8222 50.0011C14.3294 43.9833 14.0233 40.4399 18.8633 37.9782C23.7033 35.5165 25.1667 33.281 25.1667 26.2119C25.1667 19.1428 33.7848 19.3128 32.7597 12.4859C31.7346 5.65899 36.4105 5.82192 40.7415 1.56166C45.0725 -2.69861 50.0758 9.12705 54.0228 12.4859C57.9699 15.8448 54.7814 18.9357 58.3913 21.5734C62.0011 24.2112 62.0775 24.079 63.367 29.8295C64.2267 33.6633 66.3978 36.3795 69.8804 37.9782C71.5748 38.7066 74.2388 39.0708 77.8725 39.0708C83.323 39.0708 82.3123 44.6802 82.3123 50.0011C82.3123 55.322 87.6456 57.7842 91.6518 62.7727C92.3947 63.6976 92.9616 64.6345 93.3527 65.5834H93.3527Z" fill="url(#paint10_linear_2025_2574)"/>
<path fill-rule="evenodd" clip-rule="evenodd" d="M36.8623 7.84106C33.6946 11.4591 43.8335 16.3752 38.9887 24.4339C34.144 32.4927 51.1073 37.9781 41.8818 45.9558C35.7315 51.2743 35.867 56.4557 42.2881 61.4999C31.4314 72.4151 25.3999 68.819 17.741 61.4999C15.3599 59.2244 12.639 57.5878 9.93433 56.869C11.0987 54.6661 12.2335 52.3513 12.8222 50.001C14.3294 43.9832 14.0233 40.4398 18.8633 37.9781C23.7033 35.5164 25.1667 33.2809 25.1667 26.2118C25.1667 19.1427 33.7848 19.3127 32.7597 12.4858C31.7346 5.65886 36.4106 5.82178 40.7415 1.56152C40.2672 3.33584 38.9741 5.42902 36.8623 7.84106Z" fill="url(#paint11_linear_2025_2574)"/>
<path fill-rule="evenodd" clip-rule="evenodd" d="M25.6278 72.9486C21.6748 73.7398 19.4828 72.8485 19.052 70.2746C18.4056 66.4137 24.0558 64.3558 21.2307 60.3405C18.4056 56.3251 23.5011 52.979 22.9376 49.1676C22.3741 45.3563 24.143 43.6262 27.9038 51.9546C31.6645 60.2831 25.9264 59.4115 29.4558 65.4145C31.8087 69.4166 30.5327 71.9279 25.6278 72.9486Z" fill="url(#paint12_linear_2025_2574)"/>
<path fill-rule="evenodd" clip-rule="evenodd" d="M24.8743 55.5434C26.2666 57.9488 25.0821 59.8773 24.6489 61.3154C24.2157 62.7536 24.5216 65.1 24.8743 66.221C25.227 67.3421 24.795 69.9099 24.6489 70.8625C24.5028 71.8152 24.9622 73.0718 24.6489 73.115C21.3115 73.5743 19.4459 72.6275 19.052 70.2745C18.4056 66.4136 24.0558 64.3557 21.2307 60.3403C18.4056 56.325 23.5011 52.9788 22.9376 49.1675C23.3005 51.8145 23.9461 53.9398 24.8743 55.5434Z" fill="url(#paint13_linear_2025_2574)"/>
<path fill-rule="evenodd" clip-rule="evenodd" d="M22.958 80.33C24.2534 74.7827 24.4392 71.4333 23.5153 70.2817C22.1295 68.5544 21.9353 66.8469 22.958 68.3242C23.9808 69.8015 25.0501 70.2389 24.367 66.089C23.6838 61.939 25.8118 57.508 25.4486 59.179C25.0855 60.8501 24.2466 63.6102 25.1183 66.089C25.9901 68.5677 23.8229 70.8568 26.774 69.7116C29.7251 68.5664 27.8459 69.7257 26.4706 70.8387C25.0953 71.9517 25.0689 71.9613 25.6301 74.6913C26.0043 76.5113 26.1243 78.0871 25.9901 79.4188L22.958 80.33Z" fill="url(#paint14_linear_2025_2574)"/>
<path fill-rule="evenodd" clip-rule="evenodd" d="M49.628 70.0343C47.1062 70.5404 45.7079 69.9704 45.433 68.3243C45.0207 65.8551 48.6252 64.539 46.823 61.971C45.0207 59.4031 48.2713 57.2631 47.9118 54.8256C47.5523 52.3881 48.6808 51.2817 51.0799 56.608C53.479 61.9343 49.8185 61.3769 52.07 65.2161C53.571 67.7755 52.757 69.3816 49.628 70.0343Z" fill="url(#paint15_linear_2025_2574)"/>
<path fill-rule="evenodd" clip-rule="evenodd" d="M49.1473 58.9033C50.0355 60.4417 49.2798 61.675 49.0035 62.5947C48.7272 63.5145 48.9223 65.0151 49.1473 65.732C49.3723 66.449 49.0967 68.0912 49.0035 68.7004C48.9103 69.3097 49.2034 70.1134 49.0035 70.1409C46.8745 70.4347 45.6843 69.8292 45.433 68.3243C45.0207 65.8552 48.6252 64.5391 46.823 61.9711C45.0207 59.4031 48.2713 57.2632 47.9118 54.8257C48.1434 56.5185 48.5552 57.8777 49.1473 58.9033Z" fill="url(#paint16_linear_2025_2574)"/>
<path fill-rule="evenodd" clip-rule="evenodd" d="M47.9249 74.7552C48.7512 71.2074 48.8697 69.0654 48.2804 68.3289C47.3964 67.2242 47.2725 66.1322 47.9249 67.077C48.5773 68.0218 49.2595 68.3015 48.8237 65.6475C48.3879 62.9935 49.7454 60.1597 49.5137 61.2284C49.282 62.2971 48.7469 64.0623 49.303 65.6475C49.8591 67.2327 48.4766 68.6967 50.3592 67.9643C52.2418 67.2319 51.043 67.9733 50.1656 68.6851C49.2883 69.3969 49.2715 69.4031 49.6295 71.149C49.8682 72.3129 49.9501 73.4196 49.8753 74.469L47.9249 74.7552Z" fill="url(#paint17_linear_2025_2574)"/>
<path d="M44.8336 75.1104L45.0113 75.2022C40.4015 84.1225 37.3411 89.6822 35.8267 91.8864L35.6619 91.7732C37.1696 89.5785 40.228 84.0225 44.8336 75.1104Z" fill="#123874"/>
<path fill-rule="evenodd" clip-rule="evenodd" d="M66.0747 88.873L68.4224 89.5629C66.4156 90.4816 64.9936 91.4424 64.1565 92.4453C59.8393 93.0806 56.1479 93.9545 53.0823 95.0671C45.6551 94.3604 40.5279 92.9039 37.7007 90.6978L44.7028 81.166L66.0747 88.873Z" fill="url(#paint18_linear_2025_2574)"/>
<path fill-rule="evenodd" clip-rule="evenodd" d="M63.7123 91.4545C65.5149 90.1862 67.0931 89.552 68.447 89.552C65.0138 85.5637 62.0025 81.1798 59.4133 76.4004L51.1599 80.1704L57.7148 90.6376L60.6515 89.904H62.7276L63.7123 91.4545Z" fill="url(#paint19_linear_2025_2574)"/>
<path fill-rule="evenodd" clip-rule="evenodd" d="M37.699 90.5911C41.3774 92.561 46.4681 93.7472 52.9711 94.1496C56.1588 92.8077 58.9768 92.1368 61.4251 92.1368C60.2121 88.6974 59.5339 83.4254 59.3905 76.3208C55.9031 76.4488 53.0776 76.4488 50.914 76.3208C48.7504 76.1929 46.7416 75.7941 44.8875 75.1245C43.6765 78.6958 42.4705 81.6038 41.2696 83.8484C40.0686 86.0931 38.8784 88.3407 37.699 90.5911Z" fill="url(#paint20_linear_2025_2574)"/>
<path fill-rule="evenodd" clip-rule="evenodd" d="M37.699 90.5911C41.3774 92.561 46.4681 93.7472 52.9711 94.1496C55.5693 88.8119 57.7091 82.869 59.3905 76.3208C55.9031 76.4488 53.0776 76.4488 50.914 76.3208C48.7504 76.1929 46.7416 75.7941 44.8875 75.1245C43.6765 78.6958 42.4705 81.6038 41.2696 83.8484C40.0686 86.0931 38.8784 88.3407 37.699 90.5911Z" fill="url(#paint21_linear_2025_2574)"/>
<path fill-rule="evenodd" clip-rule="evenodd" d="M63.7123 91.4545C65.5149 90.1862 67.0932 89.552 68.447 89.552C65.0138 85.5637 62.0026 81.1798 59.4133 76.4004C59.8979 80.0076 60.3419 82.6327 60.7451 84.2757C61.0784 85.6335 61.7392 87.5096 62.7277 89.904L63.7123 91.4545Z" fill="url(#paint22_linear_2025_2574)"/>
<path d="M53.8881 96.38L53.7078 96.2936C54.9936 93.6099 56.8689 87.0128 59.3295 76.5118L59.3819 76.2881L59.5099 76.4789C63.5847 82.5525 67.4386 87.0227 71.07 89.8891L70.9461 90.0461C67.3343 87.1951 63.5101 82.7734 59.4718 76.7807C57.0334 87.1673 55.1735 93.6973 53.8881 96.38Z" fill="#123874"/>
<path fill-rule="evenodd" clip-rule="evenodd" d="M71.5193 89.3361L70.9493 90.046L70.9087 89.9368L71.2345 89.2017L71.5193 89.3361Z" fill="#123874"/>
<path fill-rule="evenodd" clip-rule="evenodd" d="M53.1265 96.101L53.3178 95.8228L53.9261 96.2701L53.8855 96.3792L53.1265 96.101Z" fill="#123874"/>
<path fill-rule="evenodd" clip-rule="evenodd" d="M35.0869 91.5292L35.2696 91.2529L35.8607 91.7822L35.827 91.8844L35.0869 91.5292Z" fill="#123874"/>
<defs>
<linearGradient id="paint0_linear_2025_2574" x1="56.837" y1="61.5152" x2="76.1639" y2="13.8848" gradientUnits="userSpaceOnUse">
<stop stop-color="#D5EDF3"/>
<stop offset="1" stop-color="#A2DBD8"/>
</linearGradient>
<linearGradient id="paint1_linear_2025_2574" x1="79.4038" y1="70.3868" x2="48.0315" y2="95.7042" gradientUnits="userSpaceOnUse">
<stop stop-color="#2FAC6D"/>
<stop offset="1" stop-color="#007846"/>
</linearGradient>
<linearGradient id="paint2_linear_2025_2574" x1="107.55" y1="77.1353" x2="33.3673" y2="103.194" gradientUnits="userSpaceOnUse">
<stop stop-color="#2FAC6D"/>
<stop offset="1" stop-color="#007846"/>
</linearGradient>
<linearGradient id="paint3_linear_2025_2574" x1="116.193" y1="94.5268" x2="51.1384" y2="128.161" gradientUnits="userSpaceOnUse">
<stop stop-color="#68C179"/>
<stop offset="1" stop-color="#25A062"/>
</linearGradient>
<linearGradient id="paint4_linear_2025_2574" x1="93.9246" y1="88.7319" x2="56.2446" y2="106.581" gradientUnits="userSpaceOnUse">
<stop stop-color="#68C179"/>
<stop offset="1" stop-color="#25A062"/>
</linearGradient>
<linearGradient id="paint5_linear_2025_2574" x1="69.7284" y1="92.4022" x2="65.4265" y2="114.409" gradientUnits="userSpaceOnUse">
<stop stop-color="#77EBFF"/>
<stop offset="1" stop-color="#4D86DE"/>
</linearGradient>
<linearGradient id="paint6_linear_2025_2574" x1="49.4051" y1="131.031" x2="49.3841" y2="131.119" gradientUnits="userSpaceOnUse">
<stop stop-color="#91F6FF"/>
<stop offset="1" stop-color="#4D86DE"/>
</linearGradient>
<linearGradient id="paint7_linear_2025_2574" x1="111.335" y1="82.5936" x2="65.4072" y2="149.544" gradientUnits="userSpaceOnUse">
<stop stop-color="#91F6FF"/>
<stop offset="1" stop-color="#4D86DE"/>
</linearGradient>
<linearGradient id="paint8_linear_2025_2574" x1="87.0283" y1="21.0879" x2="70.6604" y2="69.303" gradientUnits="userSpaceOnUse">
<stop stop-color="#30A0DE"/>
<stop offset="1" stop-color="#194383"/>
</linearGradient>
<linearGradient id="paint9_linear_2025_2574" x1="89.1701" y1="89.922" x2="118.958" y2="-23.4174" gradientUnits="userSpaceOnUse">
<stop stop-color="#30A0DE"/>
<stop offset="1" stop-color="#194383"/>
</linearGradient>
<linearGradient id="paint10_linear_2025_2574" x1="54.0848" y1="19.2275" x2="42.3353" y2="66.0876" gradientUnits="userSpaceOnUse">
<stop stop-color="#30A0DE"/>
<stop offset="1" stop-color="#194383"/>
</linearGradient>
<linearGradient id="paint11_linear_2025_2574" x1="29.143" y1="20.179" x2="16.5899" y2="78.1442" gradientUnits="userSpaceOnUse">
<stop stop-color="#30A0DE"/>
<stop offset="1" stop-color="#194383"/>
</linearGradient>
<linearGradient id="paint12_linear_2025_2574" x1="24.8" y1="46" x2="24.8" y2="66.7031" gradientUnits="userSpaceOnUse">
<stop stop-color="#68C179"/>
<stop offset="1" stop-color="#1FA063"/>
</linearGradient>
<linearGradient id="paint13_linear_2025_2574" x1="22.3244" y1="50.8234" x2="20.6183" y2="73.1066" gradientUnits="userSpaceOnUse">
<stop stop-color="#68C179"/>
<stop offset="1" stop-color="#1FA063"/>
</linearGradient>
<linearGradient id="paint14_linear_2025_2574" x1="25.2807" y1="83.5299" x2="25.8484" y2="67.2972" gradientUnits="userSpaceOnUse">
<stop stop-color="#006239"/>
<stop offset="1" stop-color="#007846"/>
</linearGradient>
<linearGradient id="paint15_linear_2025_2574" x1="49.0999" y1="52.7998" x2="49.0999" y2="66.0402" gradientUnits="userSpaceOnUse">
<stop stop-color="#68C179"/>
<stop offset="1" stop-color="#1FA063"/>
</linearGradient>
<linearGradient id="paint16_linear_2025_2574" x1="47.5205" y1="55.8847" x2="46.4321" y2="70.1359" gradientUnits="userSpaceOnUse">
<stop stop-color="#68C179"/>
<stop offset="1" stop-color="#1FA063"/>
</linearGradient>
<linearGradient id="paint17_linear_2025_2574" x1="49.3599" y1="83.3675" x2="50.318" y2="67.9309" gradientUnits="userSpaceOnUse">
<stop stop-color="#006239"/>
<stop offset="1" stop-color="#008D52"/>
</linearGradient>
<linearGradient id="paint18_linear_2025_2574" x1="100.745" y1="87.3132" x2="48.6511" y2="96.9201" gradientUnits="userSpaceOnUse">
<stop stop-color="#68C179"/>
<stop offset="1" stop-color="#139553"/>
</linearGradient>
<linearGradient id="paint19_linear_2025_2574" x1="59.8034" y1="78.2193" x2="60.6642" y2="85.1626" gradientUnits="userSpaceOnUse">
<stop stop-color="#F9BB49"/>
<stop offset="1" stop-color="#CD6709"/>
</linearGradient>
<linearGradient id="paint20_linear_2025_2574" x1="51.4308" y1="76.1681" x2="55.7575" y2="94.3795" gradientUnits="userSpaceOnUse">
<stop stop-color="#F9BB49"/>
<stop offset="1" stop-color="#F08523"/>
</linearGradient>
<linearGradient id="paint21_linear_2025_2574" x1="48.5447" y1="77.3194" x2="47.2798" y2="87.7126" gradientUnits="userSpaceOnUse">
<stop stop-color="#F9BB49"/>
<stop offset="1" stop-color="#F08523"/>
</linearGradient>
<linearGradient id="paint22_linear_2025_2574" x1="63.9302" y1="76.4004" x2="63.2501" y2="87.0166" gradientUnits="userSpaceOnUse">
<stop stop-color="#F9BB49"/>
<stop offset="1" stop-color="#F08523"/>
</linearGradient>
</defs>
</svg>
