<svg width="133" height="120" viewBox="0 0 133 120" fill="none" xmlns="http://www.w3.org/2000/svg">
<path d="M66.0002 120C99.1373 120 126 93.1371 126 60C126 26.8629 99.1373 0 66.0002 0C32.8632 0 6.00024 26.8629 6.00024 60C6.00024 93.1371 32.8632 120 66.0002 120Z" fill="url(#paint0_linear_2025_2548)"/>
<path fill-rule="evenodd" clip-rule="evenodd" d="M6.4812 67.6342C19.0329 64.1779 33.2781 64.8385 49.2168 69.6161C76.9611 77.9325 97.3919 53.9326 120.765 69.6161C122.145 70.5422 123.456 71.5032 124.696 72.499C118.946 99.637 94.8511 120 66.0001 120C35.4492 120 10.2313 97.1666 6.4812 67.6342H6.4812Z" fill="url(#paint1_linear_2025_2548)"/>
<path fill-rule="evenodd" clip-rule="evenodd" d="M9.62916 80.5972C20.0586 73.7199 30.6559 72.0883 41.4211 75.7025C58.1093 81.3052 67.308 68.1473 89.9498 81.3052C105.705 90.4608 114.072 79.0158 122.502 80.2371C114.199 103.417 92.0361 120 66.0004 120C40.0997 120 18.0321 103.589 9.62915 80.5972L9.62916 80.5972Z" fill="url(#paint2_linear_2025_2548)"/>
<path fill-rule="evenodd" clip-rule="evenodd" d="M8.70605 77.869C40.7413 73.7759 38.9239 86.3089 72.707 90.6406C93.7678 93.3411 110.927 86.7271 120.989 84.0422C111.721 105.211 90.5877 120 66.0002 120C39.0862 120 16.3111 102.279 8.70605 77.869Z" fill="url(#paint3_linear_2025_2548)"/>
<path fill-rule="evenodd" clip-rule="evenodd" d="M28.1619 106.567C26.9885 105.612 25.852 104.614 24.7546 103.575C28.1991 102.086 38.9595 101 51.7002 101C67.2194 101 79.8002 102.612 79.8002 104.6C79.8002 106.588 67.2194 108.2 51.7002 108.2C41.847 108.2 33.1783 107.55 28.1619 106.567Z" fill="url(#paint4_linear_2025_2548)"/>
<path opacity="0.2" d="M112.8 42.9999C123.735 42.9999 132.6 34.1351 132.6 23.1999C132.6 12.2647 123.735 3.3999 112.8 3.3999C101.865 3.3999 93.0002 12.2647 93.0002 23.1999C93.0002 34.1351 101.865 42.9999 112.8 42.9999Z" fill="url(#paint5_linear_2025_2548)"/>
<path fill-rule="evenodd" clip-rule="evenodd" d="M6.55298 51.8211C10.5422 22.5532 35.6374 0 66.0002 0C77.8141 0 88.8306 3.41441 98.1167 9.31025C92.1386 12.6159 87.8802 17.2136 85.3416 23.1031C79.3713 36.9539 68.6406 44.256 48.3227 39.6533C32.0693 35.9714 16.001 41.1485 6.55298 51.8211Z" fill="url(#paint6_linear_2025_2548)"/>
<path fill-rule="evenodd" clip-rule="evenodd" d="M1.03638 49.1837C1.70834 50.0307 2.69134 50.711 3.98537 51.2247C5.27939 51.7384 6.1775 51.7384 6.67968 51.2247C6.69845 52.138 7.21609 52.8001 8.23261 53.2112C9.75739 53.8278 23.174 58.5233 25.3157 56.5767C25.3796 57.452 26.6317 58.1595 29.0721 58.6991C32.7327 59.5086 48.4557 62.7554 49.5964 60.7273C50.0656 61.7665 51.1083 62.3807 52.7246 62.5696C55.1489 62.8531 67.4667 64.4054 68.8846 62.2988C69.2741 62.8562 69.9121 63.1348 70.7986 63.1348C72.1285 63.1348 74.9661 63.1194 75.5316 62.5696C75.9086 62.2032 72.5207 59.1548 65.3679 53.4246L47.5283 45.0802L16.889 41.2236L1.03638 49.1837Z" fill="url(#paint7_linear_2025_2548)"/>
<path fill-rule="evenodd" clip-rule="evenodd" d="M41.2605 32.7597C41.3232 32.3224 41.7286 32.0187 42.166 32.0815C42.6033 32.1442 42.907 32.5496 42.8442 32.987L41.7921 40.3209C41.7293 40.7582 41.3239 41.0619 40.8866 40.9992C40.4492 40.9364 40.1455 40.531 40.2083 40.0937L41.2605 32.7597ZM38.2396 50.5326C38.3158 50.0973 38.7304 49.8063 39.1656 49.8825C39.6008 49.9587 39.8919 50.3732 39.8157 50.8084L30.3484 104.894C30.2722 105.329 29.8577 105.62 29.4224 105.544C28.9872 105.468 28.6962 105.053 28.7724 104.618L38.2396 50.5326Z" fill="url(#paint8_linear_2025_2548)"/>
<path fill-rule="evenodd" clip-rule="evenodd" d="M1.58314 46.9013C0.859419 47.5843 0.497559 48.2615 0.497559 48.9329C0.497559 49.9401 0.67315 49.83 3.39576 49.83C5.21084 49.83 9.73928 49.7475 16.9811 49.5825C18.4184 49.5307 19.4784 48.4901 20.1611 46.4608C20.4381 49.241 21.6413 50.7394 23.771 50.956C26.9655 51.281 37.8616 51.6692 45.4812 53.7432C53.1008 55.8173 56.044 57.8886 57.6783 53.0886C58.0013 55.1307 58.9928 56.5087 60.6529 57.2225C62.3131 57.9364 66.9105 59.7055 74.4454 62.5297C75.0569 62.8361 75.5031 62.717 75.784 62.1725C76.2053 61.3556 74.6875 58.4142 73.0522 56.244C71.417 54.0739 65.8946 42.4074 50.1709 37.4897C48.6305 35.7394 46.6901 34.8642 44.3498 34.8642C40.8392 34.8642 36.9383 32.1508 32.9112 34.3127C27.3086 34.058 22.3923 34.9282 18.162 36.9232C13.9318 38.9182 8.40553 42.2443 1.58314 46.9013Z" fill="url(#paint9_linear_2025_2548)"/>
<path fill-rule="evenodd" clip-rule="evenodd" d="M53.2686 102.362L48.3337 94.9359C48.1851 94.7122 48.2467 94.4109 48.4713 94.2628C48.6959 94.1148 48.9985 94.1761 49.1472 94.3998L54.0821 101.826C54.2307 102.05 54.1691 102.351 53.9445 102.499C53.7199 102.647 53.4173 102.586 53.2686 102.362Z" fill="url(#paint10_linear_2025_2548)"/>
<path fill-rule="evenodd" clip-rule="evenodd" d="M42.7562 105.376C42.575 105.574 42.2666 105.589 42.0672 105.408C41.8679 105.228 41.8531 104.921 42.0342 104.722L52.4029 93.3578C52.584 93.1593 52.8925 93.1446 53.0918 93.325C53.2912 93.5054 53.306 93.8125 53.1248 94.0111L42.7562 105.376Z" fill="url(#paint11_linear_2025_2548)"/>
<path fill-rule="evenodd" clip-rule="evenodd" d="M56.5292 93.9253H68.4336C67.4578 96.99 65.6563 98.4777 63.0293 98.3886C63.0293 98.3886 58.6658 98.3886 49.939 98.3886L56.5292 93.9253Z" fill="url(#paint12_linear_2025_2548)"/>
<path fill-rule="evenodd" clip-rule="evenodd" d="M40.9526 81.8413H54.877C56.1114 91.5046 58.8288 97.0203 63.0292 98.3885H49.9389C47.1382 98.0503 45.0989 96.4273 43.8207 93.5195C42.5425 90.6116 41.5865 86.7189 40.9526 81.8413Z" fill="url(#paint13_linear_2025_2548)"/>
<path fill-rule="evenodd" clip-rule="evenodd" d="M54.3871 82.7383C54.24 82.5136 54.3037 82.2127 54.5293 82.0662C54.755 81.9197 55.0571 81.9831 55.2042 82.2078L68.223 102.099C68.3701 102.323 68.3064 102.624 68.0807 102.771C67.8551 102.917 67.5529 102.854 67.4058 102.629L54.3871 82.7383Z" fill="url(#paint14_linear_2025_2548)"/>
<path fill-rule="evenodd" clip-rule="evenodd" d="M58.0184 105.44C57.8372 105.639 57.5288 105.654 57.3294 105.473C57.1301 105.293 57.1153 104.986 57.2964 104.787L67.6651 93.4228C67.8462 93.2242 68.1547 93.2095 68.3541 93.3899C68.5534 93.5703 68.5682 93.8775 68.387 94.076L58.0184 105.44Z" fill="url(#paint15_linear_2025_2548)"/>
<path opacity="0.2" d="M112.8 42.9999C123.735 42.9999 132.6 34.1351 132.6 23.1999C132.6 12.2647 123.735 3.3999 112.8 3.3999C101.865 3.3999 93.0002 12.2647 93.0002 23.1999C93.0002 34.1351 101.865 42.9999 112.8 42.9999Z" fill="url(#paint16_linear_2025_2548)"/>
<path d="M112.8 37.2002C120.532 37.2002 126.8 30.9322 126.8 23.2002C126.8 15.4682 120.532 9.2002 112.8 9.2002C105.068 9.2002 98.8003 15.4682 98.8003 23.2002C98.8003 30.9322 105.068 37.2002 112.8 37.2002Z" fill="url(#paint17_linear_2025_2548)"/>
<defs>
<linearGradient id="paint0_linear_2025_2548" x1="60.1711" y1="13.6988" x2="24.2029" y2="60" gradientUnits="userSpaceOnUse">
<stop stop-color="#C1FFF7"/>
<stop offset="1" stop-color="#93E9DE"/>
</linearGradient>
<linearGradient id="paint1_linear_2025_2548" x1="80.2463" y1="86.3079" x2="68.2995" y2="102.669" gradientUnits="userSpaceOnUse">
<stop stop-color="#5A93EA"/>
<stop offset="1" stop-color="#3768B4"/>
</linearGradient>
<linearGradient id="paint2_linear_2025_2548" x1="59.1579" y1="91.7801" x2="49.7522" y2="105.277" gradientUnits="userSpaceOnUse">
<stop stop-color="#5A93EA"/>
<stop offset="1" stop-color="#3768B4"/>
</linearGradient>
<linearGradient id="paint3_linear_2025_2548" x1="64.8476" y1="95.3894" x2="63.0852" y2="101.703" gradientUnits="userSpaceOnUse">
<stop stop-color="#F9BB49"/>
<stop offset="1" stop-color="#F08523"/>
</linearGradient>
<linearGradient id="paint4_linear_2025_2548" x1="43.5648" y1="108.2" x2="43.5648" y2="101" gradientUnits="userSpaceOnUse">
<stop stop-color="#E87E1E" stop-opacity="0"/>
<stop offset="1" stop-color="#F07023"/>
</linearGradient>
<linearGradient id="paint5_linear_2025_2548" x1="112.8" y1="3.3999" x2="109.811" y2="31.3991" gradientUnits="userSpaceOnUse">
<stop stop-color="#F9BB49"/>
<stop offset="1" stop-color="#F08523"/>
</linearGradient>
<linearGradient id="paint6_linear_2025_2548" x1="58.4303" y1="29.2226" x2="47.05" y2="9.98794" gradientUnits="userSpaceOnUse">
<stop stop-color="#D3FFFA"/>
<stop offset="1" stop-color="#B7FFF6"/>
</linearGradient>
<linearGradient id="paint7_linear_2025_2548" x1="37.4075" y1="52.9073" x2="37.7964" y2="50.7088" gradientUnits="userSpaceOnUse">
<stop stop-color="#5A93EA"/>
<stop offset="1" stop-color="#3768B4"/>
</linearGradient>
<linearGradient id="paint8_linear_2025_2548" x1="35.7677" y1="82.4402" x2="32.1765" y2="27.7892" gradientUnits="userSpaceOnUse">
<stop stop-color="#DB593D"/>
<stop offset="1" stop-color="#F88461"/>
</linearGradient>
<linearGradient id="paint9_linear_2025_2548" x1="40.4206" y1="45.5578" x2="39.391" y2="51.0542" gradientUnits="userSpaceOnUse">
<stop stop-color="#77EBFF"/>
<stop offset="1" stop-color="#4D86DE"/>
</linearGradient>
<linearGradient id="paint10_linear_2025_2548" x1="50.9894" y1="99.9382" x2="49.5189" y2="93.8405" gradientUnits="userSpaceOnUse">
<stop stop-color="#DB593D"/>
<stop offset="1" stop-color="#F88461"/>
</linearGradient>
<linearGradient id="paint11_linear_2025_2548" x1="46.8636" y1="101.654" x2="44.0012" y2="92.5698" gradientUnits="userSpaceOnUse">
<stop stop-color="#DB593D"/>
<stop offset="1" stop-color="#F88461"/>
</linearGradient>
<linearGradient id="paint12_linear_2025_2548" x1="58.9652" y1="96.2389" x2="59.0492" y2="95.8535" gradientUnits="userSpaceOnUse">
<stop stop-color="#5A93EA"/>
<stop offset="1" stop-color="#3768B4"/>
</linearGradient>
<linearGradient id="paint13_linear_2025_2548" x1="52.6484" y1="84.7646" x2="51.6956" y2="94.5974" gradientUnits="userSpaceOnUse">
<stop stop-color="#77EBFF"/>
<stop offset="1" stop-color="#4D86DE"/>
</linearGradient>
<linearGradient id="paint14_linear_2025_2548" x1="60.8351" y1="96.2869" x2="57.3529" y2="81.1365" gradientUnits="userSpaceOnUse">
<stop stop-color="#DB593D"/>
<stop offset="1" stop-color="#F88461"/>
</linearGradient>
<linearGradient id="paint15_linear_2025_2548" x1="62.1259" y1="101.719" x2="59.2634" y2="92.6348" gradientUnits="userSpaceOnUse">
<stop stop-color="#DB593D"/>
<stop offset="1" stop-color="#F88461"/>
</linearGradient>
<linearGradient id="paint16_linear_2025_2548" x1="112.8" y1="3.3999" x2="109.811" y2="31.3991" gradientUnits="userSpaceOnUse">
<stop stop-color="#F9BB49"/>
<stop offset="1" stop-color="#F08523"/>
</linearGradient>
<linearGradient id="paint17_linear_2025_2548" x1="112.8" y1="9.2002" x2="110.687" y2="28.9976" gradientUnits="userSpaceOnUse">
<stop stop-color="#F9BB49"/>
<stop offset="1" stop-color="#F08523"/>
</linearGradient>
</defs>
</svg>
